<?xml version="1.0" standalone="no"?><!DOCTYPE svg PUBLIC "-//W3C//DTD SVG 1.1//EN" "http://www.w3.org/Graphics/SVG/1.1/DTD/svg11.dtd"><svg t="1528263777502" class="icon" style="" viewBox="0 0 1024 1024" version="1.1" xmlns="http://www.w3.org/2000/svg" p-id="1782" xmlns:xlink="http://www.w3.org/1999/xlink" width="48" height="48"><defs><style type="text/css"></style></defs><path d="M751.532303 370.208238C763.250598 358.48994 782.20288 358.443104 794.046554 370.286776 805.808218 382.048449 805.877368 401.04573 793.899731 413.019573L437.948988 768.857154C426.106217 780.696151 407.132943 780.926175 395.193254 768.993434L219.686972 593.589173C207.916393 581.825443 207.827185 562.836332 219.670859 550.992658 231.432523 539.230988 250.404954 539.133979 262.141289 550.870314L395.331704 684.060732C407.025815 695.754836 426.034447 695.7061 437.723618 684.016926L751.532303 370.208238ZM843.262705 180.705882C876.547072 180.705882 903.529412 207.660539 903.529412 240.850964L903.529412 903.619623C903.529412 936.836837 876.57475 963.764706 843.38432 963.764706L180.61568 963.764706C147.398445 963.764706 120.470588 936.810047 120.470588 903.619623L120.470588 210.922907C120.470588 194.234505 133.802466 180.705882 150.556823 180.705882L210.823529 180.705882C227.457054 180.705882 240.941176 167.221752 240.941176 150.588235 240.941176 133.954718 227.457054 120.470588 210.823529 120.470588L180.705882 120.470588C147.507652 120.470588 180.705882 120.470588 180.705882 120.470588 114.171814 120.470588 60.235294 174.284639 60.235294 240.919335L60.235294 903.551253C60.235294 970.07326 114.049355 1024 180.684047 1024L843.315953 1024C909.837975 1024 963.764706 970.185948 963.764706 903.551253L963.764706 240.919335C963.764706 174.397329 909.824241 120.470588 843.288305 120.470588L813.176471 120.470588C796.542946 120.470588 783.058824 133.954718 783.058824 150.588235 783.058824 167.221752 796.542946 180.705882 813.176471 180.705882L843.262705 180.705882ZM722.823529 120.470588C722.823529 54.071903 668.980013 0 602.560693 0L421.439307 0C355.006645 0 301.176471 53.93652 301.176471 120.470588L301.176471 150.588235C301.176471 167.221752 314.54464 180.705882 331.294118 180.705882 347.927642 180.705882 361.411765 167.337718 361.411765 150.588235L361.411765 120.470588C361.411765 87.174657 388.302607 60.235294 421.439307 60.235294L602.560693 60.235294C635.63255 60.235294 662.588235 87.258491 662.588235 120.470588L662.588235 150.588235C662.588235 167.221752 675.956405 180.705882 692.705882 180.705882 709.339407 180.705882 722.823529 167.337718 722.823529 150.588235L722.823529 120.470588Z" p-id="1783" fill="#1afa29"></path></svg>